<mxfile host="app.diagrams.net" modified="2021-08-17T12:19:49.049Z" agent="5.0 (Macintosh; Intel Mac OS X 10_15_7) AppleWebKit/605.1.15 (KHTML, like Gecko) Version/14.1.2 Safari/605.1.15" etag="Cop0uA4q1aJ4i4D59xzp" version="14.9.7" type="github">
  <diagram id="YbGIcqJcM_vyWT_kr_fL" name="Page-1">
    <mxGraphModel dx="946" dy="1856" grid="1" gridSize="10" guides="1" tooltips="1" connect="1" arrows="1" fold="1" page="1" pageScale="1" pageWidth="827" pageHeight="1169" math="0" shadow="0">
      <root>
        <mxCell id="0" />
        <mxCell id="1" parent="0" />
        <mxCell id="5ydJg5YDk3ryJcWrI6od-1" value="&lt;font style=&quot;font-size: 20px&quot;&gt;Gene and Variant &lt;br&gt;Mutation Report&lt;/font&gt;" style="strokeWidth=2;html=1;shape=mxgraph.flowchart.multi-document;whiteSpace=wrap;fontSize=20;fillColor=#CCE5FF;" vertex="1" parent="1">
          <mxGeometry x="60" y="-595" width="210" height="100" as="geometry" />
        </mxCell>
        <mxCell id="5ydJg5YDk3ryJcWrI6od-20" style="edgeStyle=orthogonalEdgeStyle;rounded=0;jumpSize=10;orthogonalLoop=1;jettySize=auto;html=1;entryX=0;entryY=0.5;entryDx=0;entryDy=0;strokeWidth=2;" edge="1" parent="1" source="5ydJg5YDk3ryJcWrI6od-3" target="5ydJg5YDk3ryJcWrI6od-19">
          <mxGeometry relative="1" as="geometry" />
        </mxCell>
        <mxCell id="5ydJg5YDk3ryJcWrI6od-3" value="&lt;font style=&quot;color: rgb(0, 0, 0); font-family: helvetica; font-style: normal; font-weight: normal; letter-spacing: normal; text-align: center; text-indent: 0px; text-transform: none; word-spacing: 0px; text-decoration: none; font-size: 18px;&quot;&gt;FastQ files&lt;br&gt;&lt;/font&gt;&lt;span style=&quot;color: rgb(0, 0, 0); font-family: helvetica; font-size: 12px; font-style: normal; font-weight: normal; letter-spacing: normal; text-align: center; text-indent: 0px; text-transform: none; word-spacing: 0px; background-color: rgb(248, 249, 250); text-decoration: none; display: inline; float: none;&quot;&gt;(from Zenodo)&lt;/span&gt;" style="shape=parallelogram;html=1;strokeWidth=2;perimeter=parallelogramPerimeter;whiteSpace=wrap;rounded=1;arcSize=12;size=0.23;fillColor=#FF99CC;" vertex="1" parent="1">
          <mxGeometry x="110" y="-1020" width="180" height="60" as="geometry" />
        </mxCell>
        <mxCell id="5ydJg5YDk3ryJcWrI6od-16" style="edgeStyle=orthogonalEdgeStyle;rounded=0;jumpSize=10;orthogonalLoop=1;jettySize=auto;html=1;strokeWidth=2;" edge="1" parent="1" source="5ydJg5YDk3ryJcWrI6od-4">
          <mxGeometry relative="1" as="geometry">
            <mxPoint x="480" y="-1121" as="targetPoint" />
          </mxGeometry>
        </mxCell>
        <mxCell id="5ydJg5YDk3ryJcWrI6od-4" value="&lt;font style=&quot;font-size: 18px&quot;&gt;FastQC Reports&lt;/font&gt;" style="strokeWidth=2;html=1;shape=mxgraph.flowchart.multi-document;whiteSpace=wrap;" vertex="1" parent="1">
          <mxGeometry x="300" y="-1156" width="120" height="70" as="geometry" />
        </mxCell>
        <mxCell id="5ydJg5YDk3ryJcWrI6od-6" value="&lt;font style=&quot;font-size: 18px&quot;&gt;MultiQC Report&lt;/font&gt;" style="shape=document;whiteSpace=wrap;html=1;boundedLbl=1;strokeWidth=2;" vertex="1" parent="1">
          <mxGeometry x="630" y="-1155" width="150" height="65" as="geometry" />
        </mxCell>
        <mxCell id="5ydJg5YDk3ryJcWrI6od-14" style="edgeStyle=orthogonalEdgeStyle;rounded=0;jumpSize=10;orthogonalLoop=1;jettySize=auto;html=1;strokeWidth=2;" edge="1" parent="1" source="5ydJg5YDk3ryJcWrI6od-7">
          <mxGeometry relative="1" as="geometry">
            <mxPoint x="300" y="-1120" as="targetPoint" />
          </mxGeometry>
        </mxCell>
        <mxCell id="5ydJg5YDk3ryJcWrI6od-7" value="&lt;font style=&quot;font-size: 18px&quot;&gt;FASTQC&lt;/font&gt;" style="rounded=1;whiteSpace=wrap;html=1;absoluteArcSize=1;arcSize=14;strokeWidth=2;fillColor=#E6E6E6;" vertex="1" parent="1">
          <mxGeometry x="145" y="-1150" width="90" height="60" as="geometry" />
        </mxCell>
        <mxCell id="5ydJg5YDk3ryJcWrI6od-11" value="" style="curved=1;endArrow=classic;html=1;exitX=0;exitY=0.5;exitDx=0;exitDy=0;strokeWidth=2;strokeColor=#FF0000;" edge="1" parent="1" source="5ydJg5YDk3ryJcWrI6od-3">
          <mxGeometry width="50" height="50" relative="1" as="geometry">
            <mxPoint x="210" y="-890" as="sourcePoint" />
            <mxPoint x="145" y="-1120" as="targetPoint" />
            <Array as="points">
              <mxPoint x="100" y="-1070" />
              <mxPoint x="110" y="-1120" />
            </Array>
          </mxGeometry>
        </mxCell>
        <mxCell id="5ydJg5YDk3ryJcWrI6od-27" style="edgeStyle=orthogonalEdgeStyle;rounded=0;jumpSize=10;orthogonalLoop=1;jettySize=auto;html=1;strokeWidth=2;strokeColor=#000D00;" edge="1" parent="1">
          <mxGeometry relative="1" as="geometry">
            <mxPoint x="630" y="-1120" as="targetPoint" />
            <mxPoint x="570" y="-1120" as="sourcePoint" />
            <Array as="points">
              <mxPoint x="580" y="-1120" />
              <mxPoint x="580" y="-1120" />
            </Array>
          </mxGeometry>
        </mxCell>
        <mxCell id="5ydJg5YDk3ryJcWrI6od-13" value="&lt;font style=&quot;font-size: 18px&quot;&gt;MULTIQC&lt;/font&gt;" style="rounded=1;whiteSpace=wrap;html=1;absoluteArcSize=1;arcSize=14;strokeWidth=2;fillColor=#E6E6E6;" vertex="1" parent="1">
          <mxGeometry x="480" y="-1156" width="90" height="60" as="geometry" />
        </mxCell>
        <mxCell id="5ydJg5YDk3ryJcWrI6od-25" style="edgeStyle=orthogonalEdgeStyle;rounded=0;jumpSize=10;orthogonalLoop=1;jettySize=auto;html=1;strokeWidth=2;" edge="1" parent="1" source="5ydJg5YDk3ryJcWrI6od-19" target="5ydJg5YDk3ryJcWrI6od-22">
          <mxGeometry relative="1" as="geometry" />
        </mxCell>
        <mxCell id="5ydJg5YDk3ryJcWrI6od-19" value="&lt;font&gt;&lt;b&gt;&lt;font size=&quot;4&quot;&gt;Trimmomatic&lt;/font&gt;&lt;br&gt;&lt;/b&gt;&lt;font style=&quot;font-size: 14px&quot;&gt;(Quality &amp;amp; Adapter Trimming)&lt;/font&gt;&lt;br&gt;&lt;/font&gt;" style="rounded=1;whiteSpace=wrap;html=1;absoluteArcSize=1;arcSize=14;strokeWidth=2;fillColor=#E6E6E6;" vertex="1" parent="1">
          <mxGeometry x="339" y="-1020" width="150" height="60" as="geometry" />
        </mxCell>
        <mxCell id="5ydJg5YDk3ryJcWrI6od-30" style="edgeStyle=orthogonalEdgeStyle;rounded=0;jumpSize=10;orthogonalLoop=1;jettySize=auto;html=1;strokeColor=#000D00;strokeWidth=2;" edge="1" parent="1" source="5ydJg5YDk3ryJcWrI6od-22">
          <mxGeometry relative="1" as="geometry">
            <mxPoint x="618" y="-883" as="targetPoint" />
          </mxGeometry>
        </mxCell>
        <mxCell id="5ydJg5YDk3ryJcWrI6od-22" value="&lt;font style=&quot;color: rgb(0 , 0 , 0) ; font-family: &amp;#34;helvetica&amp;#34; ; font-style: normal ; font-weight: normal ; letter-spacing: normal ; text-align: center ; text-indent: 0px ; text-transform: none ; word-spacing: 0px ; text-decoration: none ; font-size: 18px&quot;&gt;Clean FastQ &lt;br&gt;files&lt;/font&gt;" style="shape=parallelogram;html=1;strokeWidth=2;perimeter=parallelogramPerimeter;whiteSpace=wrap;rounded=1;arcSize=12;size=0.23;fillColor=#99FFCC;" vertex="1" parent="1">
          <mxGeometry x="528" y="-1020" width="180" height="60" as="geometry" />
        </mxCell>
        <mxCell id="5ydJg5YDk3ryJcWrI6od-23" value="" style="curved=1;endArrow=classic;html=1;strokeWidth=2;strokeColor=#00FF00;" edge="1" parent="1">
          <mxGeometry width="50" height="50" relative="1" as="geometry">
            <mxPoint x="660" y="-1020" as="sourcePoint" />
            <mxPoint x="190" y="-1090" as="targetPoint" />
            <Array as="points">
              <mxPoint x="670" y="-1030" />
              <mxPoint x="450" y="-1060" />
              <mxPoint x="240" y="-1060" />
              <mxPoint x="210" y="-1060" />
              <mxPoint x="200" y="-1070" />
            </Array>
          </mxGeometry>
        </mxCell>
        <mxCell id="5ydJg5YDk3ryJcWrI6od-35" style="edgeStyle=orthogonalEdgeStyle;rounded=0;jumpSize=10;orthogonalLoop=1;jettySize=auto;html=1;strokeColor=#000D00;strokeWidth=2;" edge="1" parent="1" source="5ydJg5YDk3ryJcWrI6od-28" target="5ydJg5YDk3ryJcWrI6od-31">
          <mxGeometry relative="1" as="geometry" />
        </mxCell>
        <mxCell id="5ydJg5YDk3ryJcWrI6od-28" value="&lt;font style=&quot;font-size: 18px&quot;&gt;BWA-MEM&lt;/font&gt;" style="rounded=1;whiteSpace=wrap;html=1;absoluteArcSize=1;arcSize=14;strokeWidth=2;fillColor=#E6E6E6;" vertex="1" parent="1">
          <mxGeometry x="558" y="-880" width="120" height="70" as="geometry" />
        </mxCell>
        <mxCell id="5ydJg5YDk3ryJcWrI6od-37" style="edgeStyle=orthogonalEdgeStyle;rounded=0;jumpSize=10;orthogonalLoop=1;jettySize=auto;html=1;strokeColor=#000D00;strokeWidth=2;" edge="1" parent="1" source="5ydJg5YDk3ryJcWrI6od-31">
          <mxGeometry relative="1" as="geometry">
            <mxPoint x="280" y="-844" as="targetPoint" />
          </mxGeometry>
        </mxCell>
        <mxCell id="5ydJg5YDk3ryJcWrI6od-31" value="&lt;font style=&quot;color: rgb(0 , 0 , 0) ; font-family: &amp;#34;helvetica&amp;#34; ; font-style: normal ; font-weight: normal ; letter-spacing: normal ; text-align: center ; text-indent: 0px ; text-transform: none ; word-spacing: 0px ; text-decoration: none ; font-size: 18px&quot;&gt;RAW BAM &lt;br&gt;files&lt;/font&gt;" style="shape=parallelogram;html=1;strokeWidth=2;perimeter=parallelogramPerimeter;whiteSpace=wrap;rounded=1;arcSize=12;size=0.23;fillColor=#FFFFFF;" vertex="1" parent="1">
          <mxGeometry x="350" y="-876" width="150" height="63" as="geometry" />
        </mxCell>
        <mxCell id="5ydJg5YDk3ryJcWrI6od-33" value="&lt;font style=&quot;font-size: 18px&quot;&gt;Reference Genome&lt;/font&gt;" style="ellipse;shape=cloud;whiteSpace=wrap;html=1;strokeWidth=2;fillColor=#E6E6E6;" vertex="1" parent="1">
          <mxGeometry x="678" y="-970" width="140" height="80" as="geometry" />
        </mxCell>
        <mxCell id="5ydJg5YDk3ryJcWrI6od-34" value="" style="curved=1;endArrow=classic;html=1;strokeColor=#000D00;strokeWidth=2;exitX=0.55;exitY=0.95;exitDx=0;exitDy=0;exitPerimeter=0;" edge="1" parent="1" source="5ydJg5YDk3ryJcWrI6od-33">
          <mxGeometry width="50" height="50" relative="1" as="geometry">
            <mxPoint x="770" y="-910" as="sourcePoint" />
            <mxPoint x="680" y="-840" as="targetPoint" />
            <Array as="points">
              <mxPoint x="770" y="-840" />
            </Array>
          </mxGeometry>
        </mxCell>
        <mxCell id="5ydJg5YDk3ryJcWrI6od-36" value="&lt;font style=&quot;font-size: 18px&quot;&gt;Mapping Statistics&lt;/font&gt;" style="strokeWidth=2;html=1;shape=mxgraph.flowchart.multi-document;whiteSpace=wrap;" vertex="1" parent="1">
          <mxGeometry x="78" y="-878" width="200" height="70" as="geometry" />
        </mxCell>
        <mxCell id="5ydJg5YDk3ryJcWrI6od-43" style="edgeStyle=orthogonalEdgeStyle;rounded=0;jumpSize=10;orthogonalLoop=1;jettySize=auto;html=1;strokeColor=#000D00;strokeWidth=2;" edge="1" parent="1" source="5ydJg5YDk3ryJcWrI6od-39" target="5ydJg5YDk3ryJcWrI6od-42">
          <mxGeometry relative="1" as="geometry" />
        </mxCell>
        <mxCell id="5ydJg5YDk3ryJcWrI6od-39" value="&lt;font&gt;&lt;b&gt;&lt;font size=&quot;4&quot;&gt;Samtools -&amp;nbsp;RmDup&lt;/font&gt;&lt;br&gt;&lt;/b&gt;&lt;font style=&quot;font-size: 14px&quot;&gt;(Duplicate Removal &amp;amp; BAM preprocessing)&lt;/font&gt;&lt;br&gt;&lt;/font&gt;" style="rounded=1;whiteSpace=wrap;html=1;absoluteArcSize=1;arcSize=14;strokeWidth=2;fillColor=#E6E6E6;" vertex="1" parent="1">
          <mxGeometry x="74" y="-729" width="170" height="70" as="geometry" />
        </mxCell>
        <mxCell id="5ydJg5YDk3ryJcWrI6od-41" value="" style="curved=1;endArrow=classic;html=1;strokeColor=#000D00;strokeWidth=2;exitX=0.25;exitY=1;exitDx=0;exitDy=0;entryX=0.75;entryY=0;entryDx=0;entryDy=0;" edge="1" parent="1" source="5ydJg5YDk3ryJcWrI6od-31" target="5ydJg5YDk3ryJcWrI6od-39">
          <mxGeometry width="50" height="50" relative="1" as="geometry">
            <mxPoint x="350" y="-810" as="sourcePoint" />
            <mxPoint x="210" y="-752" as="targetPoint" />
            <Array as="points">
              <mxPoint x="330" y="-790" />
            </Array>
          </mxGeometry>
        </mxCell>
        <mxCell id="5ydJg5YDk3ryJcWrI6od-46" style="edgeStyle=orthogonalEdgeStyle;rounded=0;jumpSize=10;orthogonalLoop=1;jettySize=auto;html=1;exitX=1;exitY=0.5;exitDx=0;exitDy=0;entryX=0;entryY=0.5;entryDx=0;entryDy=0;strokeColor=#000D00;strokeWidth=2;" edge="1" parent="1" source="5ydJg5YDk3ryJcWrI6od-42" target="5ydJg5YDk3ryJcWrI6od-44">
          <mxGeometry relative="1" as="geometry" />
        </mxCell>
        <mxCell id="5ydJg5YDk3ryJcWrI6od-42" value="&lt;font style=&quot;color: rgb(0 , 0 , 0) ; font-family: &amp;#34;helvetica&amp;#34; ; font-style: normal ; font-weight: normal ; letter-spacing: normal ; text-align: center ; text-indent: 0px ; text-transform: none ; word-spacing: 0px ; text-decoration: none ; font-size: 18px&quot;&gt;Processed &lt;br&gt;BAM&lt;/font&gt;" style="shape=parallelogram;html=1;strokeWidth=2;perimeter=parallelogramPerimeter;whiteSpace=wrap;rounded=1;arcSize=12;size=0.23;fillColor=#FFFFFF;" vertex="1" parent="1">
          <mxGeometry x="298" y="-725.5" width="171" height="63" as="geometry" />
        </mxCell>
        <mxCell id="5ydJg5YDk3ryJcWrI6od-48" style="edgeStyle=orthogonalEdgeStyle;rounded=0;jumpSize=10;orthogonalLoop=1;jettySize=auto;html=1;entryX=0;entryY=0.5;entryDx=0;entryDy=0;entryPerimeter=0;strokeColor=#000D00;strokeWidth=2;" edge="1" parent="1" source="5ydJg5YDk3ryJcWrI6od-44" target="5ydJg5YDk3ryJcWrI6od-47">
          <mxGeometry relative="1" as="geometry" />
        </mxCell>
        <mxCell id="5ydJg5YDk3ryJcWrI6od-44" value="&lt;font style=&quot;font-size: 18px&quot;&gt;VarScan&lt;br&gt;Somatic&lt;br&gt;&lt;/font&gt;" style="rounded=1;whiteSpace=wrap;html=1;absoluteArcSize=1;arcSize=14;strokeWidth=2;fillColor=#E6E6E6;" vertex="1" parent="1">
          <mxGeometry x="513" y="-728.5" width="120" height="70" as="geometry" />
        </mxCell>
        <mxCell id="5ydJg5YDk3ryJcWrI6od-45" value="" style="curved=1;endArrow=classic;html=1;strokeColor=#000D00;strokeWidth=2;entryX=0.433;entryY=0.007;entryDx=0;entryDy=0;entryPerimeter=0;exitX=0.55;exitY=0.95;exitDx=0;exitDy=0;exitPerimeter=0;" edge="1" parent="1" source="5ydJg5YDk3ryJcWrI6od-33" target="5ydJg5YDk3ryJcWrI6od-44">
          <mxGeometry width="50" height="50" relative="1" as="geometry">
            <mxPoint x="770" y="-910" as="sourcePoint" />
            <mxPoint x="690" y="-830" as="targetPoint" />
            <Array as="points">
              <mxPoint x="780" y="-830" />
              <mxPoint x="680" y="-770" />
            </Array>
          </mxGeometry>
        </mxCell>
        <mxCell id="5ydJg5YDk3ryJcWrI6od-47" value="&lt;font style=&quot;font-size: 18px&quot;&gt;Raw VCFs&lt;/font&gt;" style="strokeWidth=2;html=1;shape=mxgraph.flowchart.multi-document;whiteSpace=wrap;" vertex="1" parent="1">
          <mxGeometry x="686" y="-728.5" width="120" height="70" as="geometry" />
        </mxCell>
        <mxCell id="5ydJg5YDk3ryJcWrI6od-53" style="edgeStyle=orthogonalEdgeStyle;rounded=0;jumpSize=10;orthogonalLoop=1;jettySize=auto;html=1;entryX=1;entryY=0.5;entryDx=0;entryDy=0;strokeColor=#000D00;strokeWidth=2;" edge="1" parent="1" source="5ydJg5YDk3ryJcWrI6od-49" target="5ydJg5YDk3ryJcWrI6od-52">
          <mxGeometry relative="1" as="geometry" />
        </mxCell>
        <mxCell id="5ydJg5YDk3ryJcWrI6od-49" value="&lt;font style=&quot;font-size: 18px&quot;&gt;&lt;b&gt;SnpEff&lt;/b&gt;&lt;br style=&quot;font-size: 12px&quot;&gt;&lt;font style=&quot;font-size: 14px&quot;&gt;(Functional annotation)&lt;/font&gt;&lt;br&gt;&lt;/font&gt;" style="rounded=1;whiteSpace=wrap;html=1;absoluteArcSize=1;arcSize=14;strokeWidth=2;fillColor=#E6E6E6;" vertex="1" parent="1">
          <mxGeometry x="622" y="-580" width="160" height="70" as="geometry" />
        </mxCell>
        <mxCell id="5ydJg5YDk3ryJcWrI6od-50" value="" style="curved=1;endArrow=classic;html=1;strokeColor=#000D00;strokeWidth=2;entryX=0.5;entryY=0;entryDx=0;entryDy=0;exitX=0.5;exitY=0.88;exitDx=0;exitDy=0;exitPerimeter=0;" edge="1" parent="1" source="5ydJg5YDk3ryJcWrI6od-47" target="5ydJg5YDk3ryJcWrI6od-49">
          <mxGeometry width="50" height="50" relative="1" as="geometry">
            <mxPoint x="740" y="-662.5" as="sourcePoint" />
            <mxPoint x="650" y="-592.5" as="targetPoint" />
            <Array as="points">
              <mxPoint x="740" y="-592.5" />
            </Array>
          </mxGeometry>
        </mxCell>
        <mxCell id="5ydJg5YDk3ryJcWrI6od-52" value="&lt;font&gt;&lt;font size=&quot;4&quot;&gt;&lt;b&gt;GEMINI &amp;amp; Uniprot&lt;br&gt;&lt;/b&gt;&lt;/font&gt;&lt;font style=&quot;font-size: 14px&quot;&gt;(Clinical annotation)&lt;/font&gt;&lt;br&gt;&lt;/font&gt;" style="rounded=1;whiteSpace=wrap;html=1;absoluteArcSize=1;arcSize=14;strokeWidth=2;fillColor=#E6E6E6;" vertex="1" parent="1">
          <mxGeometry x="384" y="-580" width="163" height="70" as="geometry" />
        </mxCell>
        <mxCell id="5ydJg5YDk3ryJcWrI6od-55" value="" style="shape=flexArrow;endArrow=classic;html=1;strokeColor=#000D00;strokeWidth=2;exitX=0;exitY=0.5;exitDx=0;exitDy=0;fillColor=#C3ABD0;" edge="1" parent="1" source="5ydJg5YDk3ryJcWrI6od-52" target="5ydJg5YDk3ryJcWrI6od-1">
          <mxGeometry width="50" height="50" relative="1" as="geometry">
            <mxPoint x="330" y="-545" as="sourcePoint" />
            <mxPoint x="380" y="-595" as="targetPoint" />
          </mxGeometry>
        </mxCell>
      </root>
    </mxGraphModel>
  </diagram>
</mxfile>
